<svg width="307" height="109" viewBox="0 0 307 109" fill="none" xmlns="http://www.w3.org/2000/svg">
<path d="M253.41 62.7734C266.203 62.7734 276.576 73.1213 276.576 85.8898C276.576 86.8741 276.496 87.843 276.372 88.7933C274.935 100.187 265.217 109 253.413 109C241.29 109 231.351 99.7014 230.343 87.8585C230.291 87.2115 230.247 86.5522 230.247 85.8867C230.244 73.1213 240.614 62.7734 253.41 62.7734ZM265.006 77.1794L260.284 81.8936C260.65 82.522 260.939 83.1999 261.125 83.9242H267.782C267.441 81.4108 266.476 79.114 265.006 77.1794ZM267.813 87.9266H261.103C260.914 88.6385 260.635 89.3133 260.263 89.9324L264.996 94.6529C266.464 92.7337 267.45 90.4369 267.813 87.9266ZM255.414 100.249C257.924 99.8995 260.204 98.9183 262.133 97.4666L257.424 92.7647C256.804 93.1268 256.124 93.393 255.414 93.5788V100.249ZM255.414 78.2008C256.143 78.3927 256.826 78.6775 257.461 79.0521L262.18 74.344C260.241 72.8737 257.939 71.9017 255.414 71.5519V78.2008ZM251.403 71.5457C248.878 71.8955 246.573 72.8737 244.638 74.3409L249.353 79.049C249.985 78.6744 250.674 78.3897 251.4 78.1977L251.403 71.5457ZM251.403 100.243V93.5819C250.69 93.393 250.017 93.1299 249.396 92.7647L244.684 97.4666C246.614 98.9183 248.897 99.8934 251.403 100.243ZM241.812 94.6745L246.561 89.9293C246.189 89.3071 245.888 88.6416 245.698 87.9297H239.041C239.395 90.4307 240.341 92.7461 241.812 94.6745ZM245.689 83.9242C245.878 83.1999 246.164 82.522 246.53 81.8936L241.802 77.1794C240.341 79.114 239.376 81.4108 239.029 83.9273H245.689V83.9242Z" fill="url(#paint0_linear)"/>
<path d="M61.0547 62.7734C73.8476 62.7734 84.2209 73.1213 84.2209 85.8898C84.2209 86.8741 84.1402 87.843 84.0161 88.7933C82.5799 100.187 72.8612 109 61.0609 109C48.9381 109 38.9991 99.7014 37.9878 87.8585C37.9351 87.2115 37.8916 86.5522 37.8916 85.8867C37.8854 73.1213 48.2587 62.7734 61.0547 62.7734ZM72.6502 77.1794L67.932 81.8936C68.298 82.522 68.5865 83.1999 68.7726 83.9242H75.4296C75.0853 81.4108 74.1206 79.114 72.6502 77.1794ZM75.4545 87.9266H68.7447C68.5555 88.6385 68.2763 89.3133 67.9041 89.9324L72.6347 94.6529C74.1082 92.7337 75.0977 90.4369 75.4545 87.9266ZM63.0586 100.249C65.5682 99.8995 67.8482 98.9183 69.7777 97.4666L65.0688 92.7647C64.4484 93.1268 63.769 93.393 63.0586 93.5788V100.249ZM63.0586 78.2008C63.7876 78.3927 64.4701 78.6775 65.106 79.0521L69.8242 74.344C67.8854 72.8737 65.5868 71.9017 63.0586 71.5519V78.2008ZM59.0446 71.5457C56.5195 71.8955 54.2147 72.8737 52.279 74.3409L56.9972 79.049C57.63 78.6744 58.3187 78.3835 59.0446 78.1977V71.5457ZM59.0446 100.243V93.5819C58.3311 93.393 57.6579 93.1299 57.0375 92.7647L52.3255 97.4666C54.255 98.9183 56.5412 99.8934 59.0446 100.243ZM49.4561 94.6745L54.2054 89.9355C53.8331 89.3102 53.5291 88.6478 53.343 87.9328H46.686C47.0396 90.4307 47.9826 92.7461 49.4561 94.6745ZM53.3337 83.9242C53.5229 83.1999 53.8052 82.522 54.1743 81.8936L49.4499 77.1794C47.9857 79.114 47.0241 81.4108 46.6736 83.9273H53.3337V83.9242Z" fill="url(#paint1_linear)"/>
<path d="M5.42858 50.8066V33.7014C5.42858 30.9496 7.43253 28.6188 10.1561 28.1947C16.6922 27.1732 28.2784 25.2448 33.4836 23.6445C40.9472 21.3477 69.7839 9.16424 79.7694 6.87674C89.758 4.58924 134.794 -7.62518 177.928 7.29462C185.227 9.81737 218.062 25.4801 237.369 33.624C243.055 33.7479 299.336 45.4546 302.333 53.4779C305.329 61.5043 306.269 65.3983 306.821 67.435C307.374 69.4718 306.821 79.2192 302.64 86.0074C298.378 88.4125 290.173 90.0283 280.687 91.1117C280.795 90.5329 280.913 89.9633 280.987 89.3783C281.152 88.1278 281.229 86.9856 281.229 85.896C281.229 70.5892 268.753 58.1334 253.41 58.1334C238.067 58.1334 225.591 70.5862 225.591 85.896C225.591 86.6822 225.644 87.4623 225.703 88.2299C225.848 89.9479 226.159 91.6163 226.608 93.2228C226.587 93.2228 226.534 93.2228 226.534 93.2228L88.4428 90.4493C88.5048 90.0933 88.5855 89.7405 88.632 89.3783C88.7964 88.1339 88.8739 86.9887 88.8739 85.896C88.8739 70.5892 76.3975 58.1365 61.0547 58.1365C45.7119 58.1365 33.2323 70.5862 33.2323 85.896C33.2323 85.9548 33.2386 86.0043 33.2417 86.06L32.6522 86.0105L9.04249 81.5748C9.04249 81.5748 8.39813e-07 76.7708 8.39813e-07 63.5534C-0.00310122 54.7377 5.42858 50.8066 5.42858 50.8066ZM142.412 34.5898L193.984 36.1654C193.035 28.4547 197.61 26.7244 197.61 26.7244C177.109 8.15513 135.789 7.52677 135.789 7.52677L142.412 34.5898ZM84.5342 32.2342L131.53 33.8098L127.271 7.52986C102.982 7.21413 89.1066 12.563 89.1066 12.563L82.1673 23.7374L84.5342 32.2342ZM58.0395 32.0733H71.1333L84.224 14.1354C74.4028 18.0356 66.5422 21.8801 61.8612 24.31C59.0197 25.7834 57.4687 28.9314 58.0395 32.0733Z" fill="url(#paint2_linear)"/>
<defs>
<linearGradient id="paint0_linear" x1="4.57466e-06" y1="109" x2="307.147" y2="0.41643" gradientUnits="userSpaceOnUse">
<stop stop-color="#5FD3D7"/>
<stop offset="1" stop-color="#79E07C"/>
</linearGradient>
<linearGradient id="paint1_linear" x1="4.57466e-06" y1="109" x2="307.147" y2="0.41643" gradientUnits="userSpaceOnUse">
<stop stop-color="#5FD3D7"/>
<stop offset="1" stop-color="#79E07C"/>
</linearGradient>
<linearGradient id="paint2_linear" x1="4.57466e-06" y1="109" x2="307.147" y2="0.41643" gradientUnits="userSpaceOnUse">
<stop stop-color="#5FD3D7"/>
<stop offset="1" stop-color="#79E07C"/>
</linearGradient>
</defs>
</svg>
